<svg width="75" height="87" viewBox="0 0 75 87" fill="none" xmlns="http://www.w3.org/2000/svg">
<path d="M68.4225 26.5833C68.4225 12.0833 37.0059 0 37.0059 0V60.4167C37.0059 60.4167 68.4225 41.0833 68.4225 26.5833Z" fill="#EA596E"/>
<path d="M5.59399 26.5833C5.59399 12.0833 37.0107 0 37.0107 0V60.4167C37.0131 60.4167 5.59399 41.0833 5.59399 26.5833Z" fill="#EA596E"/>
<path d="M58.7559 26.5833C58.7559 35.8464 37.0059 55.5833 37.0059 55.5833C37.0059 55.5833 15.2559 35.8464 15.2559 26.5833C15.2559 14.5 37.0059 0 37.0059 0C37.0059 0 58.7559 14.5 58.7559 26.5833Z" fill="#F4ABBA"/>
<path d="M24.9225 38.3452C31.0899 48.6257 20.558 60.3272 14.3931 58.2707C8.22579 56.2141 6.16921 62.3814 12.3365 64.438C18.5039 66.4946 31.7955 63.481 39.0625 56.2165C41.119 54.1599 43.1732 54.1599 43.1732 54.1599L24.9225 38.3452Z" fill="#BE1931"/>
<path d="M49.0891 38.3452C42.9218 48.6257 53.4536 60.3272 59.6186 58.2707C65.7883 56.2141 67.8425 62.3814 61.6751 64.438C55.5078 66.4946 42.2161 63.481 34.9492 56.2165C32.8926 54.1599 30.8361 54.1599 30.8361 54.1599L49.0891 38.3452Z" fill="#BE1931"/>
<path d="M15.2558 41.0833C21.4232 51.3638 11.9474 68.5512 5.78009 66.4946C-0.387244 64.438 -2.44383 70.6078 3.72351 72.6643C9.89084 74.7209 23.1825 71.7073 30.4494 64.4404C32.506 62.3838 34.5602 62.3838 34.5602 62.3838L15.2558 41.0833ZM58.7293 41.0833C52.5595 51.3638 62.0353 68.5512 68.205 66.4946C74.3723 64.438 76.4265 70.6078 70.2616 72.6643C64.0918 74.7209 50.8026 71.7073 43.5357 64.4404C41.4791 62.3814 39.4225 62.3814 39.4225 62.3814L58.7293 41.0833Z" fill="#EA596E"/>
<path d="M68.2316 78.1792C62.6201 80.0497 51.5058 65.25 53.9225 50.75C58.7558 38.6667 44.2558 32.6685 44.2558 26.6244C44.2558 11.8634 39.3476 3.09816 36.9309 3.09816C34.5143 3.09816 29.7558 11.8634 29.7558 26.6244C29.7558 32.6685 15.2558 38.6667 20.0892 50.75C22.5058 65.25 11.3916 80.0497 5.78009 78.1792C-0.387244 76.1226 -2.44383 84.3465 3.72351 86.4006C9.89084 88.4572 20.8069 85.1126 28.3928 78.1792C32.8951 74.0636 37.0058 74.0636 37.0058 74.0636C37.0058 74.0636 41.1166 74.0636 45.6164 78.1767C53.2023 85.1102 64.1184 88.4548 70.2858 86.3982C76.4531 84.3441 74.3989 76.1226 68.2316 78.1792V78.1792Z" fill="#F4ABBA"/>
<path d="M28.5475 62.8333C31.8842 62.8333 34.5892 60.1284 34.5892 56.7917C34.5892 53.4549 31.8842 50.75 28.5475 50.75C25.2108 50.75 22.5059 53.4549 22.5059 56.7917C22.5059 60.1284 25.2108 62.8333 28.5475 62.8333Z" fill="#292F33"/>
<path d="M45.4642 62.8333C48.8009 62.8333 51.5058 60.1284 51.5058 56.7917C51.5058 53.4549 48.8009 50.75 45.4642 50.75C42.1274 50.75 39.4225 53.4549 39.4225 56.7917C39.4225 60.1284 42.1274 62.8333 45.4642 62.8333Z" fill="#292F33"/>
</svg>
